<?xml version="1.0" encoding="utf-8"?>

<!-- License Agreement at http://iconmonstr.com/license/ -->

<!DOCTYPE svg PUBLIC "-//W3C//DTD SVG 1.1//EN" "http://www.w3.org/Graphics/SVG/1.1/DTD/svg11.dtd">
<svg version="1.1" xmlns="http://www.w3.org/2000/svg" xmlns:xlink="http://www.w3.org/1999/xlink" x="0px" y="0px"
	 width="512px" height="512px" viewBox="0 0 512 512" style="enable-background:new 0 0 512 512;" xml:space="preserve">
<path id="selection-7" d="M184.383,136.102l-48.549,48.558L413.451,462L462,413.451L184.383,136.102z M220.795,245.346
	l-60.687-60.695l24.275-24.274l60.687,60.695L220.795,245.346z M204.5,101.5h-34.333V50H204.5V101.5z M204.5,273.166h-34.333v51.5
	H204.5V273.166z M101.5,170.167V204.5H50v-34.333H101.5z M273.166,170.167V204.5h51.5v-34.333H273.166z M138.784,114.509
	l-24.274,24.283L78.08,102.372l24.292-24.283L138.784,114.509z M114.509,235.891l24.274,24.283l-36.412,36.43L78.08,272.312
	L114.509,235.891z M235.883,114.509l24.275,24.283l36.428-36.421l-24.291-24.283L235.883,114.509z"/>
</svg>
